<svg id="Calque_2" data-name="Calque 2" xmlns="http://www.w3.org/2000/svg" viewBox="0 0 536 536.1"><defs><style>.cls-1{fill:#00143e;}.cls-2{fill:#57c200;}</style></defs><path class="cls-1" d="M32,566.81l362.93.84a79,79,0,0,0,24.33-12.6c16.79-12.49,29.2-27.65,31.95-48.54,1.31-10-.57-20.58-2.32-30.66-.45-2.61-5.64-5.6-9.08-6.28-25.44-5-37.79-22.73-33.84-49,2.07-13.79,3.14-27.75,5.7-41.44,3.24-17.35,15.66-22.7,28.8-11,16.64,14.77,31.86,31.28,46.55,48.05,7.19,8.21,5.08,19.19-.28,27.82-5.55,8.93-5.93,17.7-3.83,27.23a117.64,117.64,0,0,1-1.58,58.21c-4.36,15.48-12.73,27.79-23.53,38.34l110.2.26V32Z" transform="translate(-32 -31.95)"/><path class="cls-2" d="M61.73,157.37c-9-6.81-19.17-10.35-29.73-12.28V171.5c13.57-1.52,27-1.56,40.17,1.67A28,28,0,0,0,61.73,157.37Z" transform="translate(-32 -31.95)"/><path class="cls-2" d="M32,32V119c.58.07,1.17.15,1.75.24,18.16,2.66,33.78,11.28,48.48,22a56.17,56.17,0,0,1,23.3,44.24,24.26,24.26,0,0,1,3.29,3.4c7.24,9.86,14.44,18,18,28,3.66,10.33,5.7,19,2.88,28.12-5.44,23.28-15,33.28-32.56,43.33-12.89,7.38-25.42,11-33,24.18-1.59,2.73-4.5,6-4.72,11.59-.15,3.74.49,7.77,6.39,12.71-6.88-1.11-10.81-6.32-11.66-9.75-2.59-10.52,1.53-21.33,6.74-28.7,10.4-11.66,24.5-17,35-28.56,13-14.27,14.17-35.08,3.32-51.25a11.6,11.6,0,0,1-1.74-3.63,50.24,50.24,0,0,1-6.86,8.52,86,86,0,0,1-7.28,6.42,49.47,49.47,0,0,1-12.41,7.87c-.21.1-.43.18-.64.27a64.86,64.86,0,0,1-24.72,6.17l-1.22.06c-.68,0-1.37,0-2.05,0h-1.7c-1.72,0-3.46-.07-5.23-.21l0-.1c-1.12-.11-2.23-.27-3.35-.44V546.05L297,277.38Z" transform="translate(-32 -31.95)"/><path class="cls-2" d="M38,196a28.52,28.52,0,0,0-6,1.61v12.09a48.07,48.07,0,0,0,10,2.42v0c11.32.1,19.72-4.33,25-13.71C57.66,195.67,48.08,194.44,38,196Z" transform="translate(-32 -31.95)"/></svg>